<?xml version="1.0" standalone="no"?><!DOCTYPE svg PUBLIC "-//W3C//DTD SVG 1.1//EN" "http://www.w3.org/Graphics/SVG/1.1/DTD/svg11.dtd"><svg t="1645691125622" class="icon" viewBox="0 0 1024 1024" version="1.1" xmlns="http://www.w3.org/2000/svg" p-id="5096" xmlns:xlink="http://www.w3.org/1999/xlink" width="48" height="48"><defs><style type="text/css"></style></defs><path d="M724.76 525.37c-6.61-3.28-14.55-2.17-20.03 2.77-23.18 20.92-53.02 32.42-84.02 32.42-69.31 0-125.69-56.39-125.69-125.68 0-36.99 16.28-71.99 44.65-96.02 5.61-4.75 7.69-12.42 5.37-19.39-2.31-6.97-8.71-11.86-16.04-12.31l-3.12-0.19-8.75-0.39c-120.5 0-218.53 98.03-218.53 218.52s98.03 218.54 218.53 218.54c112.9 0 208.49-88.14 217.61-200.66 0.59-7.38-3.36-14.35-9.98-17.61z" p-id="5097"></path><path d="M759.95 364.63c-0.83-2.54-3.04-4.39-5.69-4.79 0 0-47.41-6.87-53.84-7.81-2.87-5.82-24.09-48.81-24.09-48.81a7.043 7.043 0 0 0-6.32-3.93c-2.69 0-5.14 1.52-6.32 3.93 0 0-21.22 42.99-24.09 48.81-6.43 0.94-53.84 7.81-53.84 7.81a7.06 7.06 0 0 0-5.69 4.79c-0.23 0.74-0.34 1.46-0.34 2.19 0 1.87 0.74 3.71 2.13 5.06 0 0 34.31 33.44 38.96 37.97-1.09 6.41-9.2 53.63-9.2 53.63-0.07 0.41-0.1 0.8-0.1 1.21 0 2.23 1.05 4.36 2.9 5.68 2.18 1.58 5.05 1.8 7.42 0.55 0 0 42.42-22.3 48.17-25.33 5.75 3.03 48.17 25.33 48.17 25.33a7.017 7.017 0 0 0 7.42-0.55 6.99 6.99 0 0 0 2.9-5.68c0-0.41-0.03-0.8-0.1-1.21 0 0-8.1-47.23-9.21-53.63 4.66-4.53 38.96-37.97 38.96-37.97a7.036 7.036 0 0 0 2.13-5.06c0.01-0.73-0.11-1.45-0.33-2.19z" p-id="5098"></path></svg>